<?xml version="1.0" encoding="iso-8859-1"?>
<!-- Generator: Adobe Illustrator 16.0.0, SVG Export Plug-In . SVG Version: 6.00 Build 0)  -->
<!DOCTYPE svg PUBLIC "-//W3C//DTD SVG 1.1//EN" "http://www.w3.org/Graphics/SVG/1.1/DTD/svg11.dtd">
<svg version="1.1" id="Layer_1" xmlns="http://www.w3.org/2000/svg" xmlns:xlink="http://www.w3.org/1999/xlink" x="0px" y="0px"
	 width="33px" height="40px" viewBox="0 0 33 40" style="enable-background:new 0 0 33 40;" xml:space="preserve">
<path style="fill-rule:evenodd;clip-rule:evenodd;fill:#FFFFFF;" d="M28.713,11.668H4.276c-2.699,0-4.586,2.636-4.228,5.763
	l2.117,18.505c0.261,2.28,2.239,4.069,4.427,4.069h19.805c2.188,0,4.166-1.789,4.427-4.069l2.117-18.505
	C33.299,14.304,31.413,11.668,28.713,11.668z M30.505,18.914l-1.803,15.239c-0.222,1.878-1.906,3.351-3.769,3.351H8.07
	c-1.862,0-3.547-1.473-3.769-3.351L2.499,18.914c-0.305-2.575,1.302-4.746,3.6-4.746h20.807
	C29.204,14.168,30.81,16.339,30.505,18.914z"/>
<path style="fill-rule:evenodd;clip-rule:evenodd;fill:#FFFFFF;" d="M11.206,16.668c1.125,0,2.038,0.933,2.038,2.083
	s-0.912,2.084-2.038,2.084c-1.125,0-2.038-0.933-2.038-2.084S10.081,16.668,11.206,16.668z"/>
<path style="fill-rule:evenodd;clip-rule:evenodd;fill:#FFFFFF;" d="M21.801,11.251c0-3.441,0-7.918-5.297-7.918
	s-5.297,4.477-5.297,7.918c0,3.44-1.223,2.083-1.223,2.083s-1.63,3.209-1.63-2.083C8.354,5.958,9.78,0,16.503,0
	c6.724,0,8.15,5.958,8.15,11.251c-1.299,1.542-1.63,1.25-1.63,1.25l-1.63,0.833C21.394,13.335,22.07,11.686,21.801,11.251z"/>
<path style="fill-rule:evenodd;clip-rule:evenodd;fill:#FFFFFF;" d="M21.801,16.668c1.125,0,2.038,0.933,2.038,2.083
	s-0.912,2.084-2.038,2.084c-1.125,0-2.037-0.933-2.037-2.084S20.676,16.668,21.801,16.668z"/>
</svg>
