<svg xmlns="http://www.w3.org/2000/svg" width="32.969" height="40" viewBox="0 0 32.969 40">
  <path id="ico-sacola" data-name="Sacola" class="ico ico-sacola" d="M403.071,86.5a3.869,3.869,0,0,1-3.77-3.351l-1.8-15.239c-0.305-2.575,1.3-4.746,3.6-4.746h20.807c2.3,0,3.905,2.171,3.6,4.746l-1.8,15.239a3.867,3.867,0,0,1-3.769,3.351H403.071ZM421.4,89a4.6,4.6,0,0,0,4.427-4.069l2.117-18.5c0.358-3.126-1.528-5.763-4.228-5.763H399.276c-2.7,0-4.586,2.636-4.228,5.763l2.118,18.5A4.6,4.6,0,0,0,401.592,89H421.4ZM406.206,65.669a2.084,2.084,0,1,1-2.037,2.084A2.061,2.061,0,0,1,406.206,65.669ZM416.8,60.251c0-3.441,0-7.918-5.3-7.918s-5.3,4.477-5.3,7.918-1.222,2.084-1.222,2.084-1.63,3.21-1.63-2.084S404.78,49,411.5,49s8.149,5.958,8.149,11.251c-1.3,1.543-1.63,1.25-1.63,1.25l-1.63.833S417.07,60.686,416.8,60.251Zm0,5.417a2.084,2.084,0,1,1-2.038,2.084A2.061,2.061,0,0,1,416.8,65.669Z" transform="translate(-395.031 -49)"/>
</svg>
